<?xml version="1.0" encoding="utf-8"?>
<svg width="24px" height="24px" viewBox="0 0 24 24" version="1.1" xmlns:xlink="http://www.w3.org/1999/xlink" xmlns="http://www.w3.org/2000/svg">
  <defs>
    <path d="M0 0L24 0L24 24L0 24L0 0Z" id="path_1" />
    <clipPath id="mask_1">
      <use xlink:href="#path_1" />
    </clipPath>
  </defs>
  <g id="Add-Bookmark-icon">
    <path d="M0 0L24 0L24 24L0 24L0 0Z" id="Background" fill="#FFFFFF" fill-opacity="0" fill-rule="evenodd" stroke="none" />
    <g clip-path="url(#mask_1)">
      <path d="M8.25 2.5C6.458 2.5 5 3.958 5 5.75L5 20.75C5 21.0315 5.1577 21.29 5.4082 21.418C5.6587 21.546 5.95998 21.5234 6.18848 21.3584L11.0195 17.8799C11.012 17.7534 11 17.6285 11 17.5C11 16.9455 11.078 16.41 11.209 15.8955L6.5 19.2861L6.5 5.75C6.5 4.785 7.285 4 8.25 4L15.75 4C16.715 4 17.5 4.785 17.5 5.75L17.5 11C18.017 11 18.5175 11.0671 19 11.1816L19 5.75C19 3.958 17.542 2.5 15.75 2.5L8.25 2.5L8.25 2.5ZM17.5 12C14.4625 12 12 14.4625 12 17.5C12 20.5375 14.4625 23 17.5 23C20.5375 23 23 20.5375 23 17.5C23 14.4625 20.5375 12 17.5 12L17.5 12ZM17.5 13.5C17.776 13.5 18 13.724 18 14L18 17L21 17C21.276 17 21.5 17.224 21.5 17.5C21.5 17.776 21.276 18 21 18L18 18L18 21C18 21.276 17.776 21.5 17.5 21.5C17.224 21.5 17 21.276 17 21L17 18L14 18C13.724 18 13.5 17.776 13.5 17.5C13.5 17.224 13.724 17 14 17L17 17L17 14C17 13.724 17.224 13.5 17.5 13.5L17.5 13.5Z" id="Shape" fill="#000000" fill-rule="evenodd" stroke="none" />
    </g>
  </g>
</svg>