<?xml version="1.0" encoding="utf-8"?>
<svg width="24px" height="24px" viewBox="0 0 24 24" version="1.1" xmlns:xlink="http://www.w3.org/1999/xlink" xmlns="http://www.w3.org/2000/svg">
  <defs>
    <path d="M0 0L24 0L24 24L0 24L0 0Z" id="path_1" />
    <clipPath id="mask_1">
      <use xlink:href="#path_1" />
    </clipPath>
  </defs>
  <g id="Remove-icon">
    <path d="M0 0L24 0L24 24L0 24L0 0Z" id="Background" fill="#FFFFFF" fill-opacity="0" fill-rule="evenodd" stroke="none" />
    <g clip-path="url(#mask_1)">
      <path d="M10 2L9 3L3 3L3 5L21 5L21 3L15 3L14 2L10 2L10 2ZM4.36523 7L5.89258 20.2637C6.02458 21.2537 6.877 22 7.875 22L16.123 22C17.121 22 17.9744 21.2549 18.1074 20.2559L19.6348 7L4.36523 7L4.36523 7Z" id="Shape" fill="#000000" fill-rule="evenodd" stroke="none" />
    </g>
  </g>
</svg>