<?xml version="1.0" encoding="utf-8"?>
<svg width="24px" height="24px" viewBox="0 0 24 24" version="1.1" xmlns:xlink="http://www.w3.org/1999/xlink" xmlns="http://www.w3.org/2000/svg">
  <defs>
    <path d="M0 0L24 0L24 24L0 24L0 0Z" id="path_1" />
    <clipPath id="mask_1">
      <use xlink:href="#path_1" />
    </clipPath>
  </defs>
  <g id="Search-icon">
    <path d="M0 0L24 0L24 24L0 24L0 0Z" id="Background" fill="#FFFFFF" fill-opacity="0" fill-rule="evenodd" stroke="none" />
    <g clip-path="url(#mask_1)">
      <path d="M9 2C5.14585 2 2 5.14585 2 9C2 12.8541 5.14585 16 9 16C10.748 16 12.345 15.348 13.5742 14.2812L14 14.707L14 16L20 22L22 20L16 14L14.707 14L14.2812 13.5742C15.348 12.345 16 10.748 16 9C16 5.14585 12.8541 2 9 2L9 2ZM9 4C11.7733 4 14 6.22673 14 9C14 11.7733 11.7733 14 9 14C6.22673 14 4 11.7733 4 9C4 6.22673 6.22673 4 9 4L9 4Z" id="Shape" fill="#000000" fill-rule="evenodd" stroke="none" />
    </g>
  </g>
</svg>